<svg xmlns="http://www.w3.org/2000/svg">
  <defs>
    <style>
      :root svg:not(:target) {
      display: none;
      }
    </style>
  </defs>

  <svg id="logo" viewBox="0 0 626 620">
    <path fill="currentColor"
          d="M320 621c-3.7 0-7.39 0-11.54-.37-11.43-5.76-22.44-11.05-33.34-16.57-30.64-15.52-61.31-30.97-91.82-46.74-26.84-13.87-53.5-28.1-80.18-42.29-1.76-.94-3.6-2.58-4.4-4.35a6777.2 6777.2 0 0 1-33.45-75.6c-3.46-7.98-6.15-16.29-9.86-26.21l-44.3 68.36-1.15-.65c2.45-7.77 4.6-15.64 7.4-23.29 8.66-23.74 20.34-45.91 36.67-65.3 12.7-15.08 26.12-29.55 39.13-44.38 1.75-2 2.96-4.48 4.45-6.75 1.5-1.1 2.95-2.19 4.73-3.46 1.71-1.62 3.3-2.91 4.38-4.55.56-.84.22-2.27.54-3.6l6.11-3.88c1.12-2.14 1.88-4.05 2.87-6.03.91-.48 1.6-.9 2.62-1.04 1.8-1.6 3.25-3.45 4.87-5.43.52-.52.9-.9 1.61-1.45 1.3-1.58 2.27-3 3.33-4.48.08-.05.34-.36.67-.5 7.6-10.1 15.2-19.82 22.06-30.04 11-16.42 17.9-34.32 17.61-54.62 0-.14-.07-.43.26-.65 1.9-5.52 3.5-10.82 5.38-16.2.32-1.01.34-1.97.4-3.4 0-6.28.22-12.12-.16-17.91-.19-2.97-.8-6.27-2.34-8.73-25.14-40.37-50.46-80.63-75.69-120.94-.79-1.27-.99-2.91-1.5-4.38-.04 0-.07-.07 0 .28 1.32 1.4 2.66 2.36 3.83 3.5 26.07 25.37 52.15 50.73 78.18 76.16 21.76 21.25 43.44 42.58 65.16 63.87.59.57 1.26 1.06 2.04 1.84.52.3.9.34 1.26.38-.18-.63-.35-1.26-.5-2.27-7.1-19.82-14.22-39.26-21.42-58.96.82.06 1.04.02 1.15.1 26.53 21.03 53.08 42.03 79.54 63.15 3.6 2.87 7.25 5.8 11.92 4.23 3.13-1.05 5.85-3.48 8.56-5.54 16.43-12.48 32.8-25.04 49.2-37.56 10.31-7.86 20.65-15.7 32.2-24.47-1.25 3.34-1.97 5.3-2.72 7.25a3646.85 3646.85 0 0 1-20.36 52.24c-.61.67-.9 1.27-1.18 1.87.78-.22 1.55-.44 2.63-.84 28.92-28.42 57.56-56.65 86.14-84.94 18.31-18.13 36.54-36.34 54.8-54.52 1.95-1.94 3.86-3.9 5.8-5.83l.18.32c-.12 1.25-.27 2.28-.8 3.06-4.05 6.01-8.45 11.8-12.23 17.98a5914.73 5914.73 0 0 0-45.1 74.43c-6.55 11.04-16.4 20.54-18.45 33.77-1.24 7.94-.62 16.23-.3 24.35.2 5.16 2.03 10.28 1.97 15.4-.1 10.24 2.55 19.78 5.85 29.25 8.05 23.08 20.8 43.36 37.1 61.46 2.56 2.85 5.8 5.1 8.76 7.62.78.45 1.54.9 1.94 1.88a21.72 21.72 0 0 0 3.82 6.06c15.63 17.39 31.27 34.78 47 52.09 20 22.02 35.85 46.57 45.69 74.77 3.21 9.21 6.96 18.42 5.64 29.89-11.48-24.54-23.66-47.19-40.42-67.67-.7 1.46-1.17 2.32-1.55 3.2-13.32 31.83-26.59 63.67-40.07 95.42-.93 2.2-3.1 4.32-5.23 5.49a1586.31 1586.31 0 0 1-35.45 18.77 26443.82 26443.82 0 0 1-98.69 50.77c-22.36 11.43-44.85 22.6-67.25 33.97-1.5.76-2.67 2.13-4 3.21m145.83-246.75c-16.2 18.87-38.3 29.02-59.94 40.34 8.52.53 16.75.53 24.84-.58 4.39-.6 9.19-2.2 12.65-4.84 11.4-8.74 18.8-20.57 24.51-34.26l-.11-2.02c-.44.35-.88.7-1.95 1.36m-282.44 33.99c3.57 1.95 6.96 5.06 10.73 5.6 8 1.16 16.2 1 24.32 1.3 1.17.04 2.36-.3 3.54-.45l.53-1.44c-21.57-10.24-44.15-18.86-60.59-37.47 4.66 12.42 11.16 23.29 21.47 32.46m-11.87-190.61-.16.63c.14-.13.27-.27.16-.63z"/>
    <path fill="currentColor"
          d="M97.61 336.86c-2.55 2.05-5.19 3.95-7.56 6.14-3.5 3.22-6.81 6.65-10.2 9.98l-1.75-1.44c2.65-3.53 5.47-6.93 7.9-10.6a2464.1 2464.1 0 0 0 20.98-32.25c.83-1.29 1.1-2.95 1.63-4.43l-1.04-.75c-3.4 3.43-6.9 6.75-10.16 10.3-9.1 9.89-17.96 19.97-27.13 29.78-23.3 24.92-45.69 50.62-66.39 77.76-.52.68-1.44 1.05-2.53 1.61-.36.04-.36-.46-.36-.71 1.91-4.51 3.89-8.75 5.73-13.04 11.97-27.9 28.91-52.6 49.09-75.12 14.27-15.93 28.8-31.65 43.3-47.38 12.93-14.04 26.11-27.84 38.9-42.01 3.03-3.36 4.9-7.77 7.6-12.24.26-1.24.22-1.93.19-2.62l-1.35 1.04c-11 11.32-22 22.65-33.01 33.95a26217.95 26217.95 0 0 1-39.22 40.09c-.3.31-.78.48-1.52.9-5.26-29.2-19.1-54.79-31.79-80.85-1.16-2.38-1.86-5.43-1.52-8 2.67-20.18 5.73-40.3 8.5-60.47 2.23-16.25 4.23-32.52 6.3-48.79 2.25-17.74 4.68-35.46 6.66-53.23 1.73-15.5 2.95-31.04 4.37-46.56.16-1.76.18-3.53 1.16-5.48 2.51 5.09 5.01 10.18 7.55 15.26a1095.76 1095.76 0 0 0 62.97 109.24c11.29 17.24 22.9 34.27 33.58 51.87 2.37 3.92 2 9.85 1.9 14.83-.13 7.61-1.12 15.2-1.6 23.26.15.45.21.74-.2.98-2.4 13.17-4.65 26.23-11.3 37.6-8.45 14.5-18.07 28.3-27.08 42.47-.82 1.28-.82 3.07-1.2 4.63 0 0-.26.3-.67-.1-2.68.73-4.96 1.9-3.34 5.1-.37.4-.75.77-1.52.84-1.92 1.65-3.44 3.63-4.96 5.6-.68.42-1.37.84-2.65 1.54a35.34 35.34 0 0 0-2.86 6.03l-6.08 3.85c-1.96 1.79-3.55 3.1-4.64 4.72-.55.84-.22 2.27-.28 3.43-1.45 1.08-2.9 2.17-4.4 3.27zM562.67 1c.99 9.73 1.4 19.48 2.37 29.17 1.34 13.51 2.99 27 4.7 40.46a5797.2 5797.2 0 0 0 7.4 56.12c2.46 18.03 5.08 36.04 7.63 54.06 1.55 10.97 3.07 21.95 4.68 32.92.67 4.53.33 8.63-2.03 12.86-12.4 22.26-22.87 45.36-29.12 70.18-.73 2.86-1.27 5.76-1.91 8.71-25.12-25.42-50.16-50.75-75.68-76.54a6.28 6.28 0 0 0-2.57-.47l1.59 1.82c3.7 5.79 7.1 11.8 11.21 17.28 3.46 4.63 7.64 8.74 11.68 12.9 15.4 15.89 31.01 31.57 46.3 47.57 28.55 29.9 54 62.05 71.19 100.04a79.02 79.02 0 0 1 4.85 13.48c-31.94-40.95-67.29-78.66-104.2-115.86-1-.45-1.51-.42-2.02-.4l.95 2c3.76 6.85 7.33 13.8 11.35 20.5 2.1 3.5 5.04 6.48 7.48 9.8.8 1.09 1.2 2.48 1.78 3.74l-1.05.78c-9.1-9.01-18.2-18.02-27.83-27.33l-2.85-1.64c-3.33-4.47-6.37-9.16-9.97-13.37-20.15-23.57-34.45-50.01-39-80.97a185 185 0 0 1-1.87-32.73c.14-4.4 3.81-8.85 6.32-13.01 19.33-32.2 39.08-64.16 58.07-96.56 11.74-20.03 22.46-40.66 33.45-61.12 2.33-4.33 3.83-9.1 5.57-14.03.3-.36.75-.36 1.53-.36z"/>
  </svg>
</svg>
